<svg version="1.1" class="clearos-svg clearfoundation app-vendor-clearfoundation app-free app-category-cloud app-sub-category-updates" viewBox="0 0 400 400" preserveAspectRatio="xMinYMin" xmlns="http://www.w3.org/2000/svg" xmlns:xlink= "http://www.w3.org/1999/xlink">
<path fill="#AA0707" d="M91.666,184.647"/>
<path fill="#AA0707" d="M123.245,247.805"/>
<path fill="#AA0707" d="M91.666,184.647"/>
<path fill="#AA0707" d="M123.245,247.805"/>
<g>
	<polygon fill="#686868" points="349.828,197.57 242.494,264.582 200.732,197.648 199.797,198.215 158.25,264.928 50.369,197.617 
		50.495,303.998 51.318,303.998 50.935,304.359 200.396,397.458 349.891,304.359 349.496,303.998 349.982,303.998 	"/>
	<path fill="#686868" d="M84.933,63.617h238.753c10.414,0,18.781-8.431,18.781-18.796V21.338c0-10.357-8.367-18.796-18.781-18.796
		H84.933c-10.405,0-18.812,8.438-18.812,18.796v23.483C66.121,55.186,74.542,63.617,84.933,63.617z M314.313,23.681
		c5.158,0,9.404,3.854,9.404,8.604s-4.246,8.604-9.404,8.604c-5.191,0-9.406-3.838-9.406-8.604
		C304.906,27.535,309.121,23.681,314.313,23.681z"/>
	<path fill="#686868" d="M315.064,95.695c4.656,0,8.307,3.138,9.076,7.148l18.67-11.655c-1.164-9.296-8.746-16.641-18.436-16.641
		H85.702c-10.389,0-18.795,8.438-18.795,18.812v4.656l60.335,37.623h144.399l38.613-24.128c-2.674-1.479-4.563-4.089-4.563-7.211
		C305.691,99.564,309.908,95.695,315.064,95.695z"/>
	<polygon fill="#686868" points="200.088,187.197 242.146,254.626 392.17,160.93 349.828,93.155 199.836,186.812 199.962,186.969 
		50.107,93.556 7.831,161.362 157.914,254.925 	"/>
	<polygon fill="#686868" points="144.817,146.593 199.705,180.819 199.608,180.638 254.068,146.593 	"/>
</g>
</svg>
